<?xml version="1.0" standalone="no"?>
<!DOCTYPE svg PUBLIC "-//W3C//DTD SVG 20010904//EN"
 "http://www.w3.org/TR/2001/REC-SVG-20010904/DTD/svg10.dtd">
<svg version="1.0" xmlns="http://www.w3.org/2000/svg"
 width="600.000000pt" height="600.000000pt" viewBox="0 0 600.000000 600.000000"
 preserveAspectRatio="xMidYMid meet">
<metadata>
Created by potrace 1.11, written by Peter Selinger 2001-2013
</metadata>
<g transform="translate(0.000000,600.000000) scale(0.100000,-0.100000)"
fill="#000000" stroke="none">
<path d="M2809 5466 c-2 -2 -39 -7 -82 -11 -74 -6 -89 -8 -147 -20 -14 -2 -41
-7 -60 -10 -110 -18 -421 -111 -428 -127 -2 -5 -10 -8 -18 -8 -7 0 -53 -18
-101 -40 -91 -42 -98 -46 -197 -100 -70 -38 -270 -171 -274 -182 -2 -4 -8 -8
-13 -8 -14 0 -313 -227 -375 -285 -17 -16 -53 -48 -79 -70 -152 -128 -375
-355 -510 -519 -22 -27 -45 -54 -50 -60 -45 -49 -245 -322 -245 -335 0 -5 -4
-11 -8 -13 -12 -4 -132 -202 -132 -216 0 -7 15 -12 33 -13 17 0 43 -2 57 -5
25 -4 141 -23 278 -44 69 -11 72 -13 72 -38 -1 -117 10 -575 14 -607 4 -22 8
-56 11 -75 27 -187 91 -422 150 -555 7 -16 25 -59 40 -95 23 -54 78 -163 129
-255 30 -54 183 -274 206 -295 3 -3 30 -34 60 -70 99 -116 205 -215 380 -353
20 -16 124 -87 175 -119 119 -75 401 -216 540 -269 28 -11 59 -24 70 -29 95
-46 508 -184 613 -205 9 -2 53 -12 97 -24 44 -11 91 -22 105 -24 14 -3 43 -10
65 -15 22 -6 63 -14 90 -17 28 -4 57 -8 65 -10 15 -5 112 -19 205 -30 28 -4
60 -8 72 -10 35 -6 226 -16 359 -20 l121 -3 -22 62 c-12 33 -27 72 -32 86 -6
14 -23 57 -38 95 -15 39 -38 96 -51 128 -13 32 -24 64 -24 71 0 10 68 53 171
108 13 7 35 21 49 29 14 9 70 45 125 80 210 133 441 331 570 490 28 34 55 67
60 73 63 67 205 296 281 451 21 44 43 83 49 87 5 4 7 8 3 8 -4 0 3 24 15 53
20 43 68 185 107 312 12 40 39 187 46 250 3 27 7 56 10 63 21 66 21 469 -1
637 -2 17 -7 57 -10 90 -13 119 -15 130 -18 155 -3 14 -8 48 -12 75 -4 28 -9
59 -11 70 -2 11 -7 34 -9 50 -21 123 -76 359 -114 488 -11 37 -20 69 -21 72 0
3 -2 10 -5 17 -2 7 -16 51 -31 98 -33 106 -112 315 -149 395 -61 134 -140 292
-159 320 -12 17 -20 32 -19 35 1 3 -6 18 -16 34 l-18 28 -69 -88 c-38 -49 -71
-91 -74 -94 -3 -3 -24 -27 -45 -55 -22 -27 -45 -56 -52 -62 -6 -7 -13 -17 -15
-23 -5 -16 -41 -19 -58 -5 -13 11 -71 46 -180 108 -374 214 -609 304 -947 363
-120 21 -188 27 -359 30 -116 2 -213 2 -215 0z m396 -1221 c54 -9 133 -28 175
-42 116 -39 320 -144 320 -165 0 -5 5 -8 11 -8 22 0 162 -130 244 -225 123
-144 238 -409 263 -605 22 -175 0 -427 -50 -575 -43 -127 -149 -318 -228 -409
-142 -164 -279 -263 -501 -360 -59 -25 -217 -65 -293 -73 -123 -13 -352 -7
-362 9 -3 5 -9 6 -14 3 -5 -3 -40 1 -77 10 -331 76 -642 314 -805 616 -170
316 -198 704 -73 1034 132 352 404 618 758 742 40 14 83 27 97 30 14 2 41 8
60 13 19 5 67 12 105 16 39 4 71 7 72 8 10 8 219 -6 298 -19z"/>
</g>
</svg>
