<?xml version="1.0" standalone="no"?>
<!DOCTYPE svg PUBLIC "-//W3C//DTD SVG 20010904//EN"
 "http://www.w3.org/TR/2001/REC-SVG-20010904/DTD/svg10.dtd">
<svg version="1.0" xmlns="http://www.w3.org/2000/svg"
 width="1024.000000pt" height="1024.000000pt" viewBox="0 0 1024.000000 1024.000000"
 preserveAspectRatio="xMidYMid meet">
<metadata>
Created by potrace 1.11, written by Peter Selinger 2001-2013
</metadata>
<g transform="translate(0.000000,1024.000000) scale(0.100000,-0.100000)"
fill="#000000" stroke="none">
<path d="M4825 9714 c-22 -2 -92 -9 -155 -15 -1073 -100 -2087 -590 -2850
-1376 -217 -223 -368 -411 -535 -662 -422 -637 -660 -1305 -747 -2096 -17
-160 -17 -730 0 -890 31 -279 78 -534 142 -769 293 -1067 963 -1996 1885
-2611 644 -430 1312 -669 2110 -757 160 -17 730 -17 890 0 597 66 1110 214
1613 466 185 93 304 163 497 291 922 615 1592 1544 1885 2611 42 156 92 392
114 549 34 235 41 348 41 665 0 394 -17 572 -86 918 -179 899 -636 1732 -1306
2382 -223 217 -411 368 -662 535 -622 412 -1282 651 -2041 741 -127 15 -694
28 -795 18z m411 -2178 c239 -64 381 -310 318 -551 -27 -104 -100 -206 -190
-262 -36 -23 -44 -34 -44 -58 -1 -101 -88 -1987 -92 -1990 -7 -7 -218 -49
-222 -44 -1 2 -23 467 -47 1033 l-45 1030 -29 20 c-104 74 -173 168 -200 271
-62 239 79 486 314 551 62 17 174 17 237 0z m-1309 -281 c74 -22 121 -61 210
-176 177 -228 399 -407 568 -458 57 -18 83 -32 91 -50 4 -9 20 -160 35 -336
30 -355 30 -357 -31 -387 -64 -31 -213 -51 -350 -45 -208 8 -331 59 -467 192
l-82 80 -48 -13 c-26 -7 -95 -16 -153 -19 -213 -12 -378 62 -500 224 l-25 33
-54 -16 c-67 -20 -171 -15 -226 11 -22 11 -64 43 -93 73 l-52 53 -75 -26
c-101 -35 -208 -47 -298 -35 -92 13 -126 24 -210 68 -119 61 -152 110 -109
161 12 14 109 52 312 120 673 226 1180 425 1302 512 64 46 168 60 255 34z
m2612 -20 c257 -142 640 -294 1331 -526 203 -68 300 -106 313 -120 26 -31 21
-67 -12 -98 -43 -40 -158 -98 -232 -117 -121 -32 -287 -18 -410 34 l-44 19
-27 -38 c-30 -42 -96 -90 -147 -107 -47 -17 -138 -15 -197 3 l-49 15 -25 -32
c-122 -162 -287 -237 -500 -225 -58 3 -127 12 -153 19 l-48 13 -82 -80 c-136
-133 -259 -184 -467 -192 -137 -6 -286 14 -350 45 -61 30 -61 32 -31 387 15
176 31 327 35 336 8 18 34 32 91 50 168 51 391 230 567 457 90 115 127 148
201 174 72 26 173 18 236 -17z m-1912 -1729 c43 -35 102 -89 131 -120 l53 -56
-18 -31 c-10 -17 -62 -73 -115 -124 -103 -98 -117 -105 -216 -105 -56 0 -96
21 -131 70 l-29 40 -42 -46 c-58 -63 -83 -124 -78 -186 13 -126 105 -169 585
-275 117 -26 211 -49 209 -50 -1 -1 -68 -16 -150 -32 -111 -22 -168 -39 -230
-69 l-83 -40 -128 20 c-151 23 -232 51 -327 114 -78 52 -138 122 -177 204 -20
44 -25 70 -25 130 3 264 186 506 400 527 52 5 65 11 106 49 46 43 48 44 117
44 l69 0 79 -64z m1251 20 c41 -38 54 -44 106 -49 214 -21 397 -263 400 -527
0 -60 -5 -86 -25 -130 -39 -82 -99 -152 -177 -204 -125 -83 -152 -89 -725
-171 -287 -41 -562 -84 -611 -97 -120 -30 -243 -92 -274 -138 -20 -29 -23 -45
-20 -90 2 -30 13 -72 23 -93 25 -54 96 -121 158 -151 59 -29 453 -149 644
-197 209 -52 278 -100 303 -212 16 -75 -9 -167 -56 -208 -11 -9 -120 -76 -243
-149 -235 -139 -312 -198 -342 -265 -50 -109 4 -192 194 -295 133 -73 200
-150 130 -150 -62 0 -266 122 -341 203 -89 98 -104 179 -52 285 40 80 131 164
257 238 133 78 239 149 290 197 47 43 56 84 29 123 -24 34 -76 50 -457 143
-226 55 -392 101 -434 120 -256 116 -357 314 -274 536 32 88 129 182 240 235
70 33 117 45 279 75 440 82 923 193 1019 236 164 72 188 205 61 343 l-42 46
-29 -40 c-35 -49 -75 -70 -131 -70 -98 0 -113 8 -213 102 -52 49 -104 105
-116 124 l-22 36 54 55 c30 30 89 84 132 119 l79 64 69 0 c69 0 71 -1 117 -44z
m-661 -1233 c-4 -38 -10 -158 -13 -268 -4 -110 -10 -209 -13 -221 l-6 -21 -72
21 -71 20 -7 111 c-3 60 -7 175 -8 255 l-2 145 75 11 c133 20 124 24 117 -53z
m-41 -888 c-3 -60 -6 -142 -6 -181 l0 -70 -45 -32 c-25 -18 -47 -32 -49 -32
-2 0 -7 73 -10 163 -4 89 -9 192 -12 228 l-6 67 67 -16 68 -17 -7 -110z m-26
-607 c0 -120 -8 -140 -39 -109 -20 20 -28 71 -23 134 2 20 42 76 55 76 4 1 7
-45 7 -101z m-21 -447 c-1 -58 -5 -135 -9 -171 l-7 -65 -2 80 c0 44 -4 124 -8
178 -5 88 -4 97 10 91 15 -5 17 -22 16 -113z"/>
</g>
</svg>
